# xmcd CD database file
#
# Track frame offsets:
#	150
#	20998
#	39348
#	60565
#	74761
#	99222
#	112869
#	127957
#	146642
#	166949
#
# Disc length: 2361 seconds
#
# Revision: 1
# Processed by: cddbd v1.5.2PL0 Copyright (c) Steve Scherf et al.
# Submitted via: Feurio! 1.68 - http://www.feurio.com
#
DISCID=8509370a
DTITLE=Doug Paisley - Strong Feelings
DYEAR=2014
DGENRE=
TTITLE0=Radio Girl
TTITLE1=Song My Love Can Sing
TTITLE2=It's Not Too Late (To Say Goodbye)
TTITLE3=Our Love
TTITLE4=What's Up Is Down
TTITLE5=Old Times
TTITLE6=Growing Souls
TTITLE7=To And Fro
TTITLE8=Where The Light Takes You
TTITLE9=Because I Love You
EXTD=
EXTT0=
EXTT1=
EXTT2=
EXTT3=
EXTT4=
EXTT5=
EXTT6=
EXTT7=
EXTT8=
EXTT9=
PLAYORDER=
